<?xml version="1.0" standalone="no"?>
<!DOCTYPE svg PUBLIC "-//W3C//DTD SVG 20010904//EN"
 "http://www.w3.org/TR/2001/REC-SVG-20010904/DTD/svg10.dtd">
<svg version="1.0" xmlns="http://www.w3.org/2000/svg"
 width="1024.000000pt" height="1024.000000pt" viewBox="0 0 1024.000000 1024.000000"
 preserveAspectRatio="xMidYMid meet">

<g transform="translate(0.000000,1024.000000) scale(0.100000,-0.100000)"
fill="#000000" stroke="none">
<path d="M4966 9159 c-150 -35 -282 -152 -321 -282 -10 -36 -16 -42 -41 -45
-207 -18 -485 -82 -684 -157 -817 -309 -1344 -916 -1529 -1762 -64 -291 -98
-702 -87 -1036 l6 -189 -41 -46 c-53 -60 -74 -103 -89 -178 -14 -70 -3 -150
29 -213 25 -48 93 -108 133 -116 34 -8 34 -9 42 -97 l7 -68 -35 0 c-51 0 -183
-44 -241 -81 -27 -17 -77 -60 -110 -94 -251 -258 -269 -705 -43 -1052 129
-198 341 -353 568 -415 71 -19 109 -23 232 -23 l146 0 31 -76 c117 -285 395
-592 725 -799 177 -111 418 -216 634 -275 274 -76 502 -105 812 -105 463 0
859 83 1220 257 442 212 761 514 943 893 l50 105 151 0 c115 1 168 5 221 19
335 89 611 362 705 696 28 97 38 285 20 384 -50 282 -224 488 -466 550 -34 9
-74 16 -89 16 -25 0 -27 2 -21 31 3 17 6 50 6 74 0 40 2 42 51 65 110 52 165
153 157 289 -5 91 -29 147 -87 214 l-43 47 1 288 c2 420 -26 700 -100 1000
-96 390 -258 717 -497 1002 -370 442 -994 767 -1617 842 -105 12 -125 20 -125
48 0 28 -49 112 -88 153 -53 54 -116 92 -204 121 -65 22 -93 26 -185 25 -59
-1 -125 -5 -147 -10z m301 -262 c28 -15 54 -31 58 -37 4 -7 -66 -10 -212 -10
l-218 0 45 29 c70 44 99 51 190 48 69 -3 95 -9 137 -30z m243 -262 c390 -37
679 -115 975 -260 677 -332 1075 -899 1199 -1710 27 -175 37 -303 43 -582 l6
-273 -84 56 c-103 68 -383 207 -539 267 -833 324 -1928 427 -2949 276 -604
-88 -1180 -289 -1578 -549 l-72 -47 -3 86 c-2 47 0 177 4 287 34 950 323 1579
918 2005 354 253 836 413 1360 452 132 10 590 5 720 -8z m-2670 -769 c0 -2 -8
-10 -17 -17 -16 -13 -17 -12 -4 4 13 16 21 21 21 13z m2610 -1606 c909 -50
1651 -267 2211 -647 150 -102 189 -144 189 -205 0 -49 -31 -82 -91 -99 -79
-21 -152 0 -522 150 -368 150 -518 203 -722 256 -420 110 -843 158 -1400 158
-835 0 -1388 -105 -2054 -390 -378 -161 -470 -190 -558 -177 -100 15 -147 87
-104 158 44 71 311 251 548 369 208 104 504 212 758 277 498 128 1142 183
1745 150z m-211 -636 c-56 -76 -209 -216 -314 -286 -107 -71 -217 -123 -330
-157 -78 -23 -195 -42 -195 -31 0 4 11 38 26 75 33 90 42 181 21 222 -20 39
-74 65 -116 57 -18 -4 -82 -43 -144 -86 -262 -186 -531 -277 -792 -265 -126 5
-196 20 -286 60 l-54 24 112 56 c392 198 847 311 1438 357 189 14 228 16 463
18 l203 2 -32 -46z m446 21 c325 -21 711 -100 1045 -213 163 -56 320 -117 343
-135 16 -13 37 -151 97 -637 40 -323 50 -448 50 -638 0 -331 -44 -552 -156
-775 -205 -411 -678 -759 -1224 -902 -849 -221 -1764 -40 -2335 463 -153 135
-265 281 -351 457 -101 209 -134 373 -141 700 -5 262 12 503 73 991 l5 42 58
-18 c173 -54 436 -48 651 14 83 25 234 87 309 127 40 22 75 38 76 37 2 -2 -1
-25 -5 -52 -10 -64 3 -108 40 -140 41 -34 104 -42 232 -27 378 41 758 276
1015 627 63 85 70 92 98 89 17 -2 71 -7 120 -10z m-3385 2 c0 -2 -10 -12 -22
-23 l-23 -19 19 23 c18 21 26 27 26 19z m5101 -483 c41 -14 114 -34 163 -45
48 -10 89 -19 91 -21 11 -12 -47 -175 -100 -283 -56 -114 -141 -245 -163 -253
-4 -1 -22 132 -40 295 -19 164 -35 306 -37 316 -4 22 -2 22 86 -9z m-4515 -6
c-3 -13 -8 -75 -11 -138 -6 -113 -29 -348 -41 -423 l-6 -39 -54 74 c-86 117
-170 305 -189 424 l-6 40 79 17 c44 10 110 28 148 41 86 31 85 31 80 4z m-786
-302 c0 -2 -8 -10 -17 -17 -16 -13 -17 -12 -4 4 13 16 21 21 21 13z m421 -194
c59 -123 141 -242 226 -329 l51 -52 5 -273 c4 -250 17 -398 43 -482 6 -18 0
-18 -107 -14 -93 4 -130 10 -202 35 -397 139 -616 562 -485 939 53 156 177
260 338 287 74 12 71 15 131 -111z m5388 92 c63 -18 162 -84 200 -133 83 -105
115 -222 108 -396 -9 -211 -81 -364 -241 -511 -146 -135 -314 -204 -497 -204
-55 0 -99 3 -99 8 0 4 10 61 21 127 18 99 22 165 23 376 l1 256 77 82 c92 98
173 216 229 336 l41 87 44 -7 c25 -3 67 -13 93 -21z"/>
<path d="M4337 8212 c-10 -10 -17 -25 -17 -33 0 -8 6 -3 13 11 l13 25 479 5
480 5 -476 3 c-450 2 -477 1 -492 -16z"/>
<path d="M5343 8213 c9 -2 23 -2 30 0 6 3 -1 5 -18 5 -16 0 -22 -2 -12 -5z"/>
<path d="M5448 8193 c7 -3 16 -2 19 1 4 3 -2 6 -13 5 -11 0 -14 -3 -6 -6z"/>
<path d="M4330 8154 c0 -13 57 -94 67 -94 3 0 -1 8 -9 18 -9 9 -25 33 -37 52
-11 19 -21 30 -21 24z"/>
<path d="M5625 8113 c6 -6 30 -28 55 -49 30 -25 37 -29 20 -10 -14 15 -38 37
-55 49 -16 11 -25 16 -20 10z"/>
<path d="M4435 8008 c22 -27 41 -48 43 -48 7 0 -36 56 -59 75 -12 11 -5 -1 16
-27z"/>
<path d="M5720 8016 c0 -2 8 -10 18 -17 15 -13 16 -12 3 4 -13 16 -21 21 -21
13z"/>
<path d="M5767 7945 c9 -19 18 -33 21 -31 4 5 -26 66 -33 66 -3 0 3 -16 12
-35z"/>
<path d="M4486 7925 c8 -37 14 -45 14 -19 0 10 -5 26 -10 34 -8 11 -9 7 -4
-15z"/>
<path d="M4932 7928 c-16 -16 -17 -440 -2 -469 10 -17 21 -19 113 -17 l102 2
-100 3 c-63 3 -102 8 -107 16 -4 7 -8 112 -8 234 0 201 2 223 18 232 9 6 12
11 7 11 -6 0 -16 -5 -23 -12z"/>
<path d="M5108 7933 c18 -2 45 -2 60 0 15 2 0 4 -33 4 -33 0 -45 -2 -27 -4z"/>
<path d="M5225 7920 c27 -12 43 -12 25 0 -8 5 -22 9 -30 9 -10 0 -8 -3 5 -9z"/>
<path d="M5322 7864 c20 -23 39 -52 43 -64 4 -12 9 -19 12 -17 8 9 -25 62 -58
92 -33 30 -33 30 3 -11z"/>
<path d="M5811 7834 c0 -11 3 -14 6 -6 3 7 2 16 -1 19 -3 4 -6 -2 -5 -13z"/>
<path d="M5822 7775 c0 -16 2 -22 5 -12 2 9 2 23 0 30 -3 6 -5 -1 -5 -18z"/>
<path d="M5382 7750 c0 -14 2 -19 5 -12 2 6 2 18 0 25 -3 6 -5 1 -5 -13z"/>
<path d="M5382 7655 c0 -16 2 -22 5 -12 2 9 2 23 0 30 -3 6 -5 -1 -5 -18z"/>
<path d="M5822 7640 c0 -19 2 -27 5 -17 2 9 2 25 0 35 -3 9 -5 1 -5 -18z"/>
<path d="M5360 7591 c-7 -17 -18 -36 -26 -42 -8 -6 -14 -16 -14 -22 0 -11 31
28 49 61 7 13 11 26 8 28 -2 3 -10 -9 -17 -25z"/>
<path d="M5811 7574 c0 -11 3 -14 6 -6 3 7 2 16 -1 19 -3 4 -6 -2 -5 -13z"/>
<path d="M5280 7499 c-22 -18 -22 -19 -3 -10 12 6 25 16 28 21 9 15 3 12 -25
-11z"/>
<path d="M5767 7455 c-9 -19 -15 -35 -12 -35 7 0 37 61 33 66 -3 2 -12 -12
-21 -31z"/>
<path d="M5195 7465 c-22 -8 -31 -14 -20 -14 11 0 34 6 50 14 38 17 22 17 -30
0z"/>
<path d="M5680 7335 c-24 -25 -42 -45 -39 -45 3 0 25 20 49 45 24 25 42 45 39
45 -3 0 -25 -20 -49 -45z"/>
<path d="M5609 7273 c-13 -16 -12 -17 4 -4 9 7 17 15 17 17 0 8 -8 3 -21 -13z"/>
<path d="M5530 7230 c-19 -11 -31 -19 -27 -20 11 0 67 29 67 35 0 7 -1 7 -40
-15z"/>
<path d="M5368 7173 c7 -3 16 -2 19 1 4 3 -2 6 -13 5 -11 0 -14 -3 -6 -6z"/>
<path d="M5298 7163 c6 -2 18 -2 25 0 6 3 1 5 -13 5 -14 0 -19 -2 -12 -5z"/>
<path d="M4936 7144 c-12 -12 -16 -34 -14 -92 l2 -77 3 77 c2 46 9 80 17 87 7
6 70 12 142 14 l129 3 -132 2 c-108 2 -134 -1 -147 -14z"/>
<path d="M4492 6960 c0 -14 2 -19 5 -12 2 6 2 18 0 25 -3 6 -5 1 -5 -13z"/>
<path d="M4931 6954 c0 -11 3 -14 6 -6 3 7 2 16 -1 19 -3 4 -6 -2 -5 -13z"/>
<path d="M4946 6915 c5 -11 144 -140 144 -132 0 2 -33 35 -74 74 -41 38 -72
64 -70 58z"/>
<path d="M4435 6868 l-40 -43 43 40 c39 36 47 45 39 45 -2 0 -21 -19 -42 -42z"/>
<path d="M4349 6783 c-13 -16 -12 -17 4 -4 16 13 21 21 13 21 -2 0 -10 -8 -17
-17z"/>
<path d="M5101 6734 c0 -11 3 -14 6 -6 3 7 2 16 -1 19 -3 4 -6 -2 -5 -13z"/>
<path d="M4720 6700 l-365 -5 362 -3 c233 -1 364 2 368 8 3 6 5 9 3 8 -2 -2
-167 -5 -368 -8z"/>
<path d="M5955 5306 c-62 -20 -122 -53 -139 -78 -37 -52 -7 -140 52 -152 15
-4 58 3 97 14 127 37 229 23 360 -49 92 -51 143 -55 174 -15 73 92 -48 221
-257 275 -87 22 -225 25 -287 5z"/>
<path d="M4105 4685 c-55 -20 -117 -88 -146 -160 -21 -52 -24 -77 -24 -186 l0
-125 38 -78 c32 -63 47 -83 85 -107 102 -65 222 -25 288 94 42 78 58 158 51
260 -14 217 -147 355 -292 302z"/>
<path d="M5993 4679 c-48 -24 -83 -66 -121 -147 -25 -53 -27 -67 -27 -182 1
-107 4 -134 24 -184 24 -59 77 -128 115 -148 105 -56 223 -3 288 130 30 60 33
76 37 174 3 88 -1 120 -18 177 -50 165 -176 241 -298 180z"/>
<path d="M4915 4224 c-94 -34 -189 -138 -216 -239 -16 -57 -6 -171 19 -227 31
-70 102 -141 174 -173 72 -32 202 -45 261 -26 75 25 102 111 53 168 -23 26
-29 28 -113 29 -137 2 -184 35 -191 133 -4 56 -3 60 32 99 27 30 49 43 85 52
82 19 121 73 101 136 -7 19 -21 41 -33 49 -27 19 -118 19 -172 -1z"/>
<path d="M5663 3665 c-12 -9 -36 -42 -54 -75 -105 -198 -383 -323 -648 -291
-166 21 -313 91 -410 197 -64 70 -97 82 -148 57 -76 -37 -78 -98 -4 -189 85
-106 234 -199 391 -244 113 -33 324 -38 450 -12 186 38 346 125 464 253 73 79
126 174 126 226 0 52 -45 93 -102 93 -24 0 -53 -7 -65 -15z"/>
</g>
</svg>
